<svg xmlns="http://www.w3.org/2000/svg" viewBox="0 0 480 148.1"><defs><style>.cls-1{fill:#111;}.cls-2{fill:none;stroke:#000;stroke-miterlimit:10;stroke-width:4px;}</style></defs><title>logoHephaestus</title><g id="Layer_3" data-name="Layer 3"><path class="cls-1" d="M11.5,129a.6.6,0,0,1-.5-.5v-23a.6.6,0,0,1,.5-.5h5a.5.5,0,0,1,.5.5V115h8.7v-9.5a.5.5,0,0,1,.5-.5h4.9a.5.5,0,0,1,.5.5v23a.5.5,0,0,1-.5.5H26.2a.5.5,0,0,1-.5-.5v-8.3H17v8.3a.5.5,0,0,1-.5.5Zm24,0V106c0-.9.1-1.1.5-1.1H52.7a.5.5,0,0,1,.5.5v4.3a.5.5,0,0,1-.5.5H41.4v4h7.1a.5.5,0,0,1,.5.5v4.2a.5.5,0,0,1-.5.5H41.4v4.1H52.7a.6.6,0,0,1,.5.5v4.3a.5.5,0,0,1-.5.5H36c-.4,0-.5-.2-.5.2Zm22,0a.5.5,0,0,1-.5-.5v-23a.5.5,0,0,1,.5-.5h9.4a9.6,9.6,0,0,1,6.8,2.3,8.5,8.5,0,0,1,2,9.1,5.8,5.8,0,0,1-2.1,2.8c-3.1,2.5-6.9,2.2-10.6,2.2v7.1a.6.6,0,0,1-.5.5ZM63,116.1s4.8.5,6.5-.6a2.9,2.9,0,0,0,1-2.2,2.8,2.8,0,0,0-1.1-2.2,6.3,6.3,0,0,0-3.5-.9H63ZM80.6,129a.5.5,0,0,1-.5-.5v-23a.5.5,0,0,1,.5-.5h5a.5.5,0,0,1,.5.5V115h8.6v-9.5a.6.6,0,0,1,.5-.5h5a.5.5,0,0,1,.5.5v23a.5.5,0,0,1-.5.5h-5a.6.6,0,0,1-.5-.5v-8.3H86.1v8.3a.5.5,0,0,1-.5.5Zm24.4,0a.5.5,0,0,1-.4-.3.3.3,0,0,1,0-.4l8.9-22.9c.1-.2.3-.4.4-.4h5.2a.4.4,0,0,1,.4.4l8.8,22.9a.6.6,0,0,1-.1.4c-.1.2-.2.3-.4.3h-5.3a.4.4,0,0,1-.4-.3l-1.5-3.6H112l-1.4,3.5-.4.3Zm8.6-8.6h5.5l-2.7-8.2Zm18.2,8.6V106c0-.9.2-1.1.5-1.1H149a.5.5,0,0,1,.5.5v4.3a.5.5,0,0,1-.5.5H137.7v4h7.2a.5.5,0,0,1,.5.5v4.2a.5.5,0,0,1-.5.5h-7.2v4.1H149a.5.5,0,0,1,.5.5v4.3a.5.5,0,0,1-.5.5H132.3c-.3,0-.5-.2-.5.2Zm31.8.2a17.2,17.2,0,0,1-5.5-1,15.3,15.3,0,0,1-4.6-2.8.6.6,0,0,1-.1-.6l1.3-4.5c.1-.2.2-.3.4-.3h.4c2,1.9,4.3,3.7,7.2,3.8a5.9,5.9,0,0,0,2.3-.1c2.3-.8,1.3-3.1-.3-3.8l-2.5-.8a17.4,17.4,0,0,1-3.7-1.3,9,9,0,0,1-2.7-2.1,6.7,6.7,0,0,1-1.1-3.9,6.5,6.5,0,0,1,1.2-3.9,7.2,7.2,0,0,1,3.1-2.6,13.6,13.6,0,0,1,4.7-.9,14.4,14.4,0,0,1,4.6.8,14.7,14.7,0,0,1,4,1.8.6.6,0,0,1,.2.7l-1.3,4.2a.3.3,0,0,1-.3.3c-.1.1-.2.1-.4,0s-3.4-2.4-5.4-2.7-3.4-.1-3.9,1.5,2.5,2.6,3.9,3.1a33,33,0,0,1,3.8,1.3,7.1,7.1,0,0,1,2.6,2.3,5.9,5.9,0,0,1,1.2,3.9,6.5,6.5,0,0,1-1.2,4,8,8,0,0,1-3.3,2.7,13.4,13.4,0,0,1-4.6.8Zm19.1-.2c-.2,0-.4-.3-.4-.5V110.4H177a.5.5,0,0,1-.5-.5v-4.4a.5.5,0,0,1,.5-.5h16.4a.5.5,0,0,1,.5.5v4.4a.5.5,0,0,1-.5.5h-5.2v18.1a.5.5,0,0,1-.5.5Zm25,0a10.7,10.7,0,0,1-5.1-1.3,8.9,8.9,0,0,1-3.6-3.6,11.8,11.8,0,0,1-1.2-5.5V105.2a.5.5,0,0,1,.5-.5h4.9a.5.5,0,0,1,.5.5v13.4a5.1,5.1,0,0,0,1.2,3.6,3.6,3.6,0,0,0,2.9,1.3,3.6,3.6,0,0,0,2.8-1.3,5.3,5.3,0,0,0,1.1-3.6V105.2a.5.5,0,0,1,.5-.5h5a.5.5,0,0,1,.5.5v13.4a10.7,10.7,0,0,1-1.3,5.5,8.1,8.1,0,0,1-3.5,3.6,10.8,10.8,0,0,1-5.2,1.3Zm24,.2a17.1,17.1,0,0,1-5.4-1,14.2,14.2,0,0,1-4.6-2.8c-.2-.1-.2-.4-.1-.6l1.3-4.5q.2-.3.3-.3h.5c2,1.9,4.3,3.7,7.2,3.8a6,6,0,0,0,2.3-.1c2.3-.8,1.3-3.1-.4-3.8l-2.4-.8a17.4,17.4,0,0,1-3.7-1.3,7.1,7.1,0,0,1-2.7-2.1,6,6,0,0,1-1.1-3.9A6.4,6.4,0,0,1,224,108a7.5,7.5,0,0,1,3.2-2.6,13.1,13.1,0,0,1,4.7-.9,14.8,14.8,0,0,1,4.6.8,16.2,16.2,0,0,1,4,1.8.6.6,0,0,1,.2.7l-1.3,4.2a.3.3,0,0,1-.3.3.3.3,0,0,1-.4,0c-1.7-1.1-3.4-2.4-5.5-2.7s-3.3-.1-3.8,1.5,2.5,2.6,3.8,3.1a27.4,27.4,0,0,1,3.8,1.3,6.7,6.7,0,0,1,2.7,2.3,5.8,5.8,0,0,1,1.1,3.9,6.5,6.5,0,0,1-1.2,4,7.2,7.2,0,0,1-3.2,2.7,13.6,13.6,0,0,1-4.7.8Zm29.5-.2c-.3,0-.4-.3-.4-.5V110.4h-5.3a.5.5,0,0,1-.5-.5v-4.4a.5.5,0,0,1,.5-.5h16.4a.5.5,0,0,1,.5.5v4.4a.5.5,0,0,1-.5.5h-5.2v18.1a.5.5,0,0,1-.5.5Zm15,0V106c0-.9.2-1.1.5-1.1h16.8a.5.5,0,0,1,.5.5v4.3a.5.5,0,0,1-.5.5H282.2v4h7.1a.5.5,0,0,1,.5.5v4.2a.5.5,0,0,1-.5.5h-7.1v4.1h11.3a.6.6,0,0,1,.5.5v4.3a.5.5,0,0,1-.5.5H276.7c-.3,0-.5-.2-.5.2Zm33.7,0a13,13,0,0,1-6.2-1.6,12.4,12.4,0,0,1-4.3-4.5,13.2,13.2,0,0,1,0-12.6,12,12,0,0,1,10.6-6,12.5,12.5,0,0,1,5,1.1,12.2,12.2,0,0,1,4.1,2.9c.2.2.2.5,0,.6l-3.6,3-.4.2a.5.5,0,0,1-.4-.2,5.9,5.9,0,0,0-7.7-1.2,6.8,6.8,0,0,0-3,6.6,6.3,6.3,0,0,0,4.5,5.7,5.9,5.9,0,0,0,6.2-1.6c.1-.1.2-.2.4-.1s.3,0,.3.1l3.8,2.6a.9.9,0,0,1,0,.7,14.3,14.3,0,0,1-4.3,3.1,11.8,11.8,0,0,1-5,1.2Zm13.7,0a.5.5,0,0,1-.5-.5v-23a.5.5,0,0,1,.5-.5h5a.6.6,0,0,1,.5.5V115h8.6v-9.5a.5.5,0,0,1,.5-.5h5a.5.5,0,0,1,.5.5v23a.5.5,0,0,1-.5.5h-5a.5.5,0,0,1-.5-.5v-8.3h-8.6v8.3a.6.6,0,0,1-.5.5Zm24.4,0a.5.5,0,0,1-.5-.5v-23a.5.5,0,0,1,.5-.5h4.5l.4.2,8.8,13.6V105.5a.6.6,0,0,1,.5-.5h4.7a.5.5,0,0,1,.5.5v23a.5.5,0,0,1-.5.5h-4.5l-.4-.2-8.8-13.5v13.2c0,.2-.2.5-.4.5Zm35.6,0a12.7,12.7,0,0,1-6.2-1.6,12.1,12.1,0,0,1-4.5-4.5,12.3,12.3,0,0,1-1.6-6.3,11.7,11.7,0,0,1,1.6-6.2,11.9,11.9,0,0,1,4.4-4.5,13.4,13.4,0,0,1,6.3-1.6,12.7,12.7,0,0,1,6.2,1.6,12.1,12.1,0,0,1,4.5,4.5,11.7,11.7,0,0,1,1.6,6.2,12.3,12.3,0,0,1-1.6,6.3,12.9,12.9,0,0,1-4.5,4.5,12.7,12.7,0,0,1-6.2,1.6Zm.1-5.5a6.2,6.2,0,0,0,3-.9,5.6,5.6,0,0,0,2.3-2.5,6.7,6.7,0,0,0,.8-3.5,6.6,6.6,0,0,0-.8-3.4,5.6,5.6,0,0,0-2.3-2.5,5.3,5.3,0,0,0-3-.9,5.9,5.9,0,0,0-3.2.9,6.2,6.2,0,0,0-2.3,2.5,6.6,6.6,0,0,0-.8,3.4,6.5,6.5,0,0,0,3.1,5.9,6,6,0,0,0,3.2,1Zm16.5,5.5a.6.6,0,0,1-.5-.5v-23a.6.6,0,0,1,.5-.5h5a.5.5,0,0,1,.5.5v18h8.6a.5.5,0,0,1,.5.5v4.5a.5.5,0,0,1-.5.5Zm29.2,0a12.7,12.7,0,0,1-6.2-1.6,12.1,12.1,0,0,1-4.5-4.5,13.4,13.4,0,0,1-1.6-6.3,12.7,12.7,0,0,1,1.6-6.2,12.1,12.1,0,0,1,4.5-4.5,12.7,12.7,0,0,1,6.2-1.6,13.4,13.4,0,0,1,6.3,1.6,12.7,12.7,0,0,1,6.1,10.7,12.4,12.4,0,0,1-1.7,6.3,12.6,12.6,0,0,1-4.4,4.5,13.4,13.4,0,0,1-6.3,1.6Zm.1-5.5a6.6,6.6,0,0,0,3.1-.9,6,6,0,0,0,2.2-2.5,6.8,6.8,0,0,0,.9-3.5,6.7,6.7,0,0,0-.9-3.4,6,6,0,0,0-2.2-2.5,5.8,5.8,0,0,0-6.2,0,6.4,6.4,0,0,0-2.4,2.5,7.7,7.7,0,0,0-.8,3.4,7.8,7.8,0,0,0,.8,3.5,6.9,6.9,0,0,0,2.4,2.4,5.7,5.7,0,0,0,3.1,1Zm28.3,5.5a11.8,11.8,0,0,1-10.6-6.1,12.3,12.3,0,0,1-1.6-6.3,11.7,11.7,0,0,1,1.6-6.2,12.1,12.1,0,0,1,4.5-4.5,13.8,13.8,0,0,1,6.4-1.6,12.7,12.7,0,0,1,5,1,12.9,12.9,0,0,1,4.2,2.6.5.5,0,0,1,0,.6l-2.8,3.7-.3.2h-.4a8,8,0,0,0-2.7-1.8,8.2,8.2,0,0,0-3-.7,5.7,5.7,0,0,0-3.2.9,6.4,6.4,0,0,0-2.4,2.5,6.3,6.3,0,0,0-.8,3.4,6.7,6.7,0,0,0,.8,3.5,7.2,7.2,0,0,0,2.4,2.5,7.3,7.3,0,0,0,3.2.9,7.9,7.9,0,0,0,2-.4,5.6,5.6,0,0,0,1.8-.7v-1.8h-3c-.1-.1-.1-.2-.1-.4v-4.3a.6.6,0,0,1,.5-.5h7.5a.6.6,0,0,1,.5.5v9.6c0,.2-.1.3-.3.5a15.8,15.8,0,0,1-4.3,2.2,14.6,14.6,0,0,1-4.9.9Zm19.7,0c-.2,0-.4-.3-.4-.5v-9.1L469,105.8a.4.4,0,0,1,0-.5c.1-.2.2-.3.4-.3h5c.2,0,.4.1.4.3l5.2,8.5,5.1-8.5.4-.3h5.1a.5.5,0,0,1,.4.3.4.4,0,0,1,0,.5l-8,13.4v9.3a.5.5,0,0,1-.5.5Zm0,0" transform="translate(-11 -5.6)"/><path class="cls-1" d="M60,143v10.4H59V143Zm11.9,0,6.4,9.1h0V143h1v10.4H78l-6.3-9.1h0v9.1h-1V143Zm19.3,0,6.3,9.1h.1V143h.9v10.4H97.3L91,144.3h-.1v9.1H90V143Zm18.3,5.2a4.4,4.4,0,0,0,1.2,3.2,4.5,4.5,0,0,0,3.2,1.4,4.4,4.4,0,0,0,3.2-1.3,4.8,4.8,0,0,0,1.2-3.3,4.3,4.3,0,0,0-4.4-4.6,4.1,4.1,0,0,0-3.2,1.3,4.8,4.8,0,0,0-1.2,3.3Zm4.4-5.5a6.1,6.1,0,0,1,2.8.7,4.6,4.6,0,0,1,1.9,2,5.1,5.1,0,0,1,.7,2.8,5.1,5.1,0,0,1-5.4,5.4,5,5,0,0,1-3.8-1.5,5.8,5.8,0,0,1-1.6-3.9,5.3,5.3,0,0,1,1.5-3.9,5.3,5.3,0,0,1,3.9-1.6Zm15,.3,3.3,9.1,3.4-9.1h1l-3.9,10.4h-1L127.8,143Zm18.2,6.7h4.7l-2.3-5.7ZM150,143l4.4,10.4h-1.1l-1.1-2.8h-5.5l-1.2,2.8h-1L149,143Zm20.6,0v.9H167v9.5h-1v-9.5h-3.5V143Zm10.4,0v10.4h-1V143Zm11.9,0,6.3,9.1h.1V143h.9v10.4H199l-6.3-9.1h-.1v9.1h-.9V143Zm22.7-.3a5,5,0,0,1,3.8,1.5l-.7.7a3,3,0,0,0-1.3-.9,3.9,3.9,0,0,0-1.8-.4,4.2,4.2,0,0,0-3.2,1.3,4.8,4.8,0,0,0-1.2,3.3,4.4,4.4,0,0,0,1.2,3.2,4.5,4.5,0,0,0,3.2,1.4,4.6,4.6,0,0,0,2.9-.7v-3.4H216v-.9h3.5v4.9a8,8,0,0,1-3.9.9,5,5,0,0,1-3.8-1.5,5.8,5.8,0,0,1-1.6-3.9,5.3,5.3,0,0,1,1.6-3.9,5,5,0,0,1,3.8-1.6Zm29.5,9.8a3.3,3.3,0,0,0,1.9-.5,2.1,2.1,0,0,0,.7-1.5,2.2,2.2,0,0,0-.7-1.6,2.7,2.7,0,0,0-1.8-.5h-2.4v4.1Zm-.2-5a3.1,3.1,0,0,0,1.7-.5,1.5,1.5,0,0,0,.6-1.3c0-1.2-.7-1.8-2.2-1.8h-2.2v3.6Zm0-4.5a3.8,3.8,0,0,1,2.4.6,2.6,2.6,0,0,1,.9,2.1,2.2,2.2,0,0,1-1.9,2.2h0a2.7,2.7,0,0,1,1.7.8,2.6,2.6,0,0,1,.6,1.8,2.6,2.6,0,0,1-.9,2.1,3.7,3.7,0,0,1-2.5.8h-3.4V143Zm20.4,0v.9h-5.4v3.7h5v.8h-5v4.1h5.6v.9h-6.6V143Zm9.8,0,3.1,4.9,3.3-4.9h1.1l-3.9,5.9v4.5h-.9v-4.5l-3.9-5.9Zm16.9,5.2a4.4,4.4,0,0,0,1.2,3.2,4.5,4.5,0,0,0,3.2,1.4,4.4,4.4,0,0,0,3.2-1.3,4.8,4.8,0,0,0,1.2-3.3,4.3,4.3,0,0,0-4.4-4.6,4.1,4.1,0,0,0-3.2,1.3,4.8,4.8,0,0,0-1.2,3.3Zm4.4-5.5a6.1,6.1,0,0,1,2.8.7,4.6,4.6,0,0,1,1.9,2,5.1,5.1,0,0,1,.7,2.8,5.1,5.1,0,0,1-5.4,5.4,5,5,0,0,1-3.8-1.5,5.8,5.8,0,0,1-1.6-3.9,6.2,6.2,0,0,1,1.5-3.9,5.3,5.3,0,0,1,3.9-1.6Zm16.7.3,6.3,9.1h0V143h1v10.4h-1.3l-6.3-9.1h0v9.1h-1V143Zm20.9,9.5a5.4,5.4,0,0,0,3.5-1.1,3.9,3.9,0,0,0,1.3-3.1,4,4,0,0,0-1.3-3.3,5.3,5.3,0,0,0-3.6-1.1h-2v8.6Zm.2-9.5a6,6,0,0,1,4.1,1.4,5,5,0,0,1,1.5,3.9,4.8,4.8,0,0,1-.7,2.6,4.2,4.2,0,0,1-1.9,1.8,5.6,5.6,0,0,1-3,.7h-3.3V143Zm28.2,0v9.5h4.9v.9h-5.9V143Zm15.2,0v10.4h-1V143Zm12,0,3.8,8.7,3.8-8.7h1.4v10.4h-1v-9.2h0l-4,9.2h-.4l-4-9.2h-.1v9.2h-.9V143Zm20.5,0v10.4h-.9V143Zm17.5,0v.9h-3.5v9.5h-1v-9.5h-3.5V143Zm12.4-.3a3.8,3.8,0,0,1,2.9,1.3l-.9.6a2.2,2.2,0,0,0-2-1,3.1,3.1,0,0,0-1.7.5,2,2,0,0,0-.6,1.5,1.7,1.7,0,0,0,.5,1.3,3.3,3.3,0,0,0,1.7.8l2.1.8a3.4,3.4,0,0,1,.8.9,5.1,5.1,0,0,1,.2,1.3,2.6,2.6,0,0,1-.9,2.1,3.4,3.4,0,0,1-2.3.8,4.1,4.1,0,0,1-3.4-1.5l1-.6a2.6,2.6,0,0,0,2.3,1.3,2.4,2.4,0,0,0,1.7-.6,1.8,1.8,0,0,0,.7-1.5,1.9,1.9,0,0,0-.2-.8,1.7,1.7,0,0,0-.6-.6,1.9,1.9,0,0,0-.9-.4l-1.4-.5a3.6,3.6,0,0,1-1.7-1.1,2.4,2.4,0,0,1-.6-1.7,2.4,2.4,0,0,1,1-2.1,3.6,3.6,0,0,1,2.3-.8Zm0,0" transform="translate(-11 -5.6)"/></g><g id="Layer_2" data-name="Layer 2"><circle class="cls-2" cx="259.5" cy="39.6" r="37.6"/><circle class="cls-2" cx="220.4" cy="39.6" r="37.6"/><line class="cls-2" x1="235.8" y1="11" x2="257.1" y2="32.3"/><line class="cls-2" x1="229.7" y1="16.9" x2="257.5" y2="44.7"/><line class="cls-2" x1="225.2" y1="24.6" x2="254.9" y2="54.3"/><line class="cls-2" x1="222.7" y1="34.4" x2="250.7" y2="62.3"/><line class="cls-2" x1="222.5" y1="46" x2="243.9" y2="67.4"/></g></svg>